# xmcd
#
# Track frame offsets: 
#        215
#        19925
#        42322
#
# Disc length: 920 seconds
#
# Revision: 11
# Processed by: cddbd v1.5.2PL0 Copyright (c) Steve Scherf et al.
# Submitted via: ExactAudioCopyFreeDBPlugin 1.0
#
DISCID=1e039603
DTITLE=Paula Abdul - Rush Rush [CDS Promo)
DYEAR=1991
DGENRE=R&B
TTITLE0=Rush Rush (7'' Edit)
TTITLE1=Rush Rush (Album Version)
TTITLE2=Rush Rush (Dub Edit)
EXTD=
EXTT0=
EXTT1=
EXTT2=
PLAYORDER=
